<?xml version="1.0" encoding="UTF-8"?>
<svg width="160px" height="40px" viewBox="0 0 160 40" version="1.1" xmlns="http://www.w3.org/2000/svg" xmlns:xlink="http://www.w3.org/1999/xlink">
    <!-- Generator: Sketch 55.1 (78136) - https://sketchapp.com -->
    <title>edit request</title>
    <desc>Created with Sketch.</desc>
    <g id="LAYOUT" stroke="none" stroke-width="1" fill="none" fill-rule="evenodd">
        <g id="Styleguide" transform="translate(-265.000000, -1868.000000)">
            <g id="edit-request" transform="translate(265.000000, 1868.000000)">
                <polygon id="Rectangle-3-Copy" fill="#5BC2E7" points="40 0 160 0 160 40 40 40"></polygon>
                <rect id="Rectangle-8" fill="#1A5A96" x="0" y="0" width="40" height="40"></rect>
                <text id="Edit-Request" font-family="MyriadPro-Semibold, Myriad Pro" font-size="16" font-weight="500" fill="#FFFFFF">
                    <tspan x="54.068" y="25">Edit Request</tspan>
                </text>
                <path d="M24.6675053,22.1504586 L25.8341972,20.9837667 C26.0164928,20.8014711 26.3336872,20.929078 26.3336872,21.1915837 L26.3336872,26.4927402 C26.3336872,27.458907 25.5498161,28.2427781 24.5836493,28.2427781 L11.7500379,28.2427781 C10.7838711,28.2427781 10,27.458907 10,26.4927402 L10,13.6591288 C10,12.6929621 10.7838711,11.9090909 11.7500379,11.9090909 L21.7216081,11.9090909 C21.9804679,11.9090909 22.1117207,12.2226394 21.9294251,12.4085809 L20.7627332,13.5752728 C20.7080445,13.6299615 20.6351263,13.6591288 20.5549162,13.6591288 L11.7500379,13.6591288 L11.7500379,26.4927402 L24.5836493,26.4927402 L24.5836493,22.3546297 C24.5836493,22.2780656 24.6128166,22.2051473 24.6675053,22.1504586 Z M30.377004,15.220035 L20.8028382,24.7942007 L17.5069335,25.158792 C16.5517044,25.2645234 15.738666,24.4587768 15.8443975,23.4962559 L16.2089887,20.2003512 L25.7831545,10.6261854 C26.6180684,9.79127152 27.9670559,9.79127152 28.7983239,10.6261854 L30.3733581,12.2012196 C31.208272,13.0361335 31.208272,14.388767 30.377004,15.220035 L30.377004,15.220035 Z M26.7748426,16.3466219 L24.6565675,14.2283468 L17.8824624,21.0060978 L17.6163108,23.3868786 L19.9970916,23.120727 L26.7748426,16.3466219 Z M29.1373938,13.4408298 L27.5623597,11.8657956 C27.4128773,11.7163132 27.1686011,11.7163132 27.0227646,11.8657956 L25.8961777,12.9923825 L28.0144528,15.1106576 L29.1410397,13.9840707 C29.2868762,13.8309424 29.2868762,13.5903122 29.1373938,13.4408298 L29.1373938,13.4408298 Z" id="edit-icon" fill="#FFFFFF" fill-rule="nonzero"></path>
            </g>
        </g>
    </g>
</svg>