<?xml version="1.0" encoding="UTF-8"?>
<svg width="116px" height="40px" viewBox="0 0 116 40" version="1.1" xmlns="http://www.w3.org/2000/svg" xmlns:xlink="http://www.w3.org/1999/xlink">
    <!-- Generator: Sketch 55.1 (78136) - https://sketchapp.com -->
    <title>Reset</title>
    <desc>Created with Sketch.</desc>
    <g id="LAYOUT" stroke="none" stroke-width="1" fill="none" fill-rule="evenodd">
        <g id="Styleguide" transform="translate(-80.000000, -1678.000000)">
            <g id="Reset" transform="translate(80.000000, 1678.000000)">
                <rect id="Rectangle-8" fill="#1A5A96" x="0" y="0" width="40" height="40"></rect>
                <path d="M18.5783207,20.0118929 L11.4282888,20.0118929 C11.1917663,20.0118929 11,19.82 11,19.5833214 L11,12.4285714 C11,12.1918929 11.1917663,12 11.4282888,12 L13.1414441,12 C13.3779665,12 13.5697329,12.1918929 13.5697329,12.4285714 L13.5697329,15.2182857 C15.2034048,13.4028214 17.5763747,12.2667857 20.2144553,12.2859643 C25.100731,12.3214643 29.0103654,16.2725 29,21.1621071 C28.9895934,26.0449286 25.0307414,30 20.148713,30 C17.8613295,30 15.7767408,29.1316786 14.2058488,27.7066071 C14.0238618,27.5415357 14.0154744,27.25825 14.1891812,27.0844643 L15.4014884,25.8713571 C15.5611688,25.7115714 15.8177138,25.7028929 15.9868521,25.8526071 C17.0945498,26.8334286 18.5514455,27.4285714 20.148713,27.4285714 C23.6202793,27.4285714 26.4302822,24.6172857 26.4302822,21.1428571 C26.4302822,17.6690357 23.6208504,14.8571429 20.148713,14.8571429 C18.0609478,14.8571429 16.2127388,15.8741429 15.0708495,17.4404643 L18.5783207,17.4404643 C18.8148432,17.4404643 19.0066095,17.6323571 19.0066095,17.8690357 L19.0066095,19.5833214 C19.0066095,19.82 18.8148432,20.0118929 18.5783207,20.0118929 Z" id="reset-icon" fill="#FFFFFF" fill-rule="nonzero"></path>
                <polygon id="Rectangle-3-Copy" fill="#5BC2E7" points="39 0 116 0 116 40 39 40"></polygon>
                <text font-family="MyriadPro-Semibold, Myriad Pro" font-size="16" font-weight="500" fill="#FFFFFF">
                    <tspan x="58.548" y="25">Reset</tspan>
                </text>
            </g>
        </g>
    </g>
</svg>